<svg 
 xmlns="http://www.w3.org/2000/svg"
 xmlns:xlink="http://www.w3.org/1999/xlink"
 width="15px" height="18px">
<path fill-rule="evenodd"  fill="rgb(255, 255, 255)"
 d="M3.888,9.281 C3.888,9.514 3.982,9.725 4.132,9.878 L6.910,12.690 C7.061,12.843 7.270,12.937 7.500,12.937 C7.730,12.937 7.938,12.843 8.088,12.690 L10.866,9.878 C11.017,9.725 11.110,9.514 11.110,9.281 C11.110,8.815 10.738,8.437 10.277,8.437 C10.047,8.437 9.838,8.532 9.688,8.684 L8.333,10.056 L8.333,0.843 C8.333,0.378 7.960,-0.000 7.500,-0.000 C7.038,-0.000 6.666,0.378 6.666,0.843 L6.666,10.056 L5.311,8.685 C5.160,8.532 4.952,8.437 4.722,8.437 C4.261,8.437 3.888,8.815 3.888,9.281 ZM13.889,3.937 L10.832,3.937 C10.372,3.937 9.999,4.315 9.999,4.781 C9.999,5.247 10.372,5.625 10.832,5.625 L13.333,5.625 L13.333,16.312 L1.666,16.312 L1.666,5.625 L4.166,5.625 C4.627,5.625 5.000,5.247 5.000,4.781 C5.000,4.315 4.627,3.937 4.166,3.937 L1.110,3.937 C0.498,3.937 -0.000,4.442 -0.000,5.062 L-0.000,16.875 C-0.000,17.494 0.498,18.000 1.110,18.000 L13.889,18.000 C14.501,18.000 15.000,17.494 15.000,16.875 L15.000,5.062 C15.000,4.442 14.501,3.937 13.889,3.937 Z"/>
</svg>